<?xml version="1.0" encoding="utf-8"?>
<!-- Generator: Adobe Illustrator 16.0.0, SVG Export Plug-In . SVG Version: 6.00 Build 0)  -->
<!DOCTYPE svg PUBLIC "-//W3C//DTD SVG 1.1//EN" "http://www.w3.org/Graphics/SVG/1.1/DTD/svg11.dtd">
<svg version="1.1" id="Monogame_Logo_Vector_1_" xmlns="http://www.w3.org/2000/svg" xmlns:xlink="http://www.w3.org/1999/xlink"
	 x="0px" y="0px" width="1518px" height="1518px" viewBox="0 0 1518 1518" enable-background="new 0 0 1518 1518"
	 xml:space="preserve">
<g id="Monogame_Logo_Vector">
	<g>
		<path fill-rule="evenodd" clip-rule="evenodd" fill="#E73C00" d="M1518,655V448c0-247.4238281-200.5761719-448-448-448
			C949.2011719,0,839.5751953,47.8164063,759,125.5463867C678.425293,47.8164063,568.7988281,0,448,0
			C200.5766602,0,0,200.5761719,0,448v622c0,247.4238281,200.5766602,448,448,448h622c247.4238281,0,448-200.5761719,448-448
			c0-9.0654297-0.2695313-18.0683594-0.8007813-27H1518V769H622v274h622v27c0,96.0976563-77.9023438,174-174,174H448
			c-96.0976563,0-174-77.9023438-174-174V448c0-96.0976563,77.9023438-174,174-174s174,77.9023438,174,174v207h274V448
			c0-96.0976563,77.9023438-174,174-174s174,77.9023438,174,174v207H1518z"/>
	</g>
</g>
</svg>
